<?xml version="1.0" encoding="UTF-8"?>
<svg id="Layer_1" data-name="Layer 1" xmlns="http://www.w3.org/2000/svg" viewBox="0 0 600 600">
  <defs>
    <style>
      .cls-1 {
        fill: #231f20;
      }

      .cls-2 {
        fill: #fff;
      }
    </style>
  </defs>
  <path class="cls-2" d="M396.23,392.55l.14-47.26-57.1-39.97,30.32-20.54,26.8-18.52-.06-45.94-12.78,9.74-69.6,55.74.31-9.17,2.67-60.3.49-16.27h-33.84s1.36,32.9,1.36,32.9l1.46,30.97c.84,15.31,8.07,27.16,8.19,42.7.07,9.26-1.59,18.16-4.29,26.99-2.28,7.48-3.36,14.64-3.66,22.52l-3,55.1h35.45s-4.53-81.02-4.53-81.02l-.61-9.05,82.28,71.37ZM246.72,357.58l29.11-25.18c7.36-6.37,10.61-16.16,11.07-25.73.65-13.63-5.36-26.01-16.38-33.84l-65.03-52.14-.19,45.21,57.83,39.63-57.8,40.37.04,46.97,41.34-35.27Z"/>
  <g>
    <path class="cls-1" d="M465.33,450.75l-142.53-123.63,1.06,15.68,7.85,140.34h-61.41s5.2-95.45,5.2-95.45c.53-13.64,2.38-26.04,6.34-39.01,4.67-15.3,7.55-30.71,7.43-46.75-.21-26.93-12.73-47.45-14.18-73.97l-2.53-53.65-2.36-56.98h58.62s-.85,28.18-.85,28.18l-4.63,104.45-.53,15.89,120.57-96.56,22.13-16.88.11,79.58-46.42,32.08-52.53,35.58,98.91,69.23-.24,81.87Z"/>
    <path class="cls-1" d="M206.34,390.2l-71.61,61.09-.07-81.36,100.13-69.93-100.18-68.64.32-78.3,112.64,90.32c19.08,13.57,29.48,35.02,28.37,58.62-.79,16.57-6.42,33.54-19.17,44.57l-50.43,43.62Z"/>
  </g>
</svg>